<?xml version="1.0" encoding="utf-8"?>
<!-- Generator: Adobe Illustrator 16.0.0, SVG Export Plug-In . SVG Version: 6.00 Build 0)  -->
<svg version="1.2" baseProfile="tiny" id="Layer_1" xmlns="http://www.w3.org/2000/svg" xmlns:xlink="http://www.w3.org/1999/xlink"
	 x="0px" y="0px" width="960px" height="307.852px" viewBox="0 0 960 307.852" overflow="scroll" xml:space="preserve">
<g>
	<path fill="#BE1E2D" d="M0.204,178.706v-0.437c0-32.985,23.374-60.072,56.358-60.072c36.698,0,55.266,28.834,55.266,62.038
		c0,2.403-0.218,4.806-0.437,7.427H26.636c2.84,18.786,16.165,29.271,33.203,29.271c12.888,0,22.063-4.806,31.237-13.761
		l15.509,13.761c-10.922,13.107-25.994,21.626-47.184,21.626C25.98,238.559,0.204,214.312,0.204,178.706z M85.615,170.186
		c-1.748-17.038-11.795-30.363-29.271-30.363c-16.165,0-27.523,12.451-29.926,30.363H85.615z"/>
	<path fill="#BE1E2D" d="M122.09,120.6h26.431v25.995c7.208-17.257,20.534-29.053,40.849-28.18v27.961h-1.529
		c-23.154,0-39.319,15.072-39.319,45.655v43.907H122.09V120.6z"/>
	<path fill="#BE1E2D" d="M197.449,76.474h26.432v159.463h-26.432V76.474z"/>
	<path fill="#BE1E2D" d="M312.566,235.938v-14.199c-7.864,9.393-19.878,16.602-37.354,16.602c-21.844,0-41.067-12.451-41.067-35.606
		v-0.437c0-25.558,19.878-37.791,46.747-37.791c13.98,0,22.937,1.966,31.893,4.806v-2.185c0-15.946-10.048-24.684-28.398-24.684
		c-12.888,0-22.499,2.839-32.984,7.208l-7.209-21.189c12.67-5.68,25.121-9.612,43.907-9.612c34.077,0,50.679,17.913,50.679,48.713
		v68.373H312.566z M313.222,187.662c-6.772-2.621-16.165-4.587-26.432-4.587c-16.601,0-26.431,6.772-26.431,17.913v0.437
		c0,10.922,9.83,17.038,22.281,17.038c17.476,0,30.583-9.83,30.583-24.247V187.662z"/>
	<path fill="#BE1E2D" d="M353.847,120.6h26.432v17.913c7.427-10.922,18.131-20.315,36.043-20.315
		c25.995,0,41.067,17.476,41.067,44.344v73.397h-26.432v-65.533c0-17.912-8.956-28.179-24.684-28.179
		c-15.291,0-25.995,10.704-25.995,28.616v65.096h-26.432V120.6z"/>
	<path fill="#BE1E2D" d="M472.675,257.563l9.83-19.878c12.232,7.646,25.34,12.233,41.067,12.233c23.592,0,36.48-12.233,36.48-35.388
		v-8.956c-9.612,12.451-21.627,21.188-40.631,21.188c-27.088,0-52.427-20.096-52.427-53.955v-0.437
		c0-34.077,25.559-54.174,52.427-54.174c19.44,0,31.456,8.956,40.411,19.66V120.6h26.433v91.746c0,19.441-5.024,33.859-14.637,43.47
		c-10.484,10.485-26.649,15.509-47.401,15.509C505.224,271.325,487.528,266.519,472.675,257.563z M560.271,172.808v-0.437
		c0-19.004-15.51-31.893-33.858-31.893c-18.35,0-32.767,12.67-32.767,31.674v0.437c0,19.005,14.636,31.893,32.767,31.893
		C544.761,204.482,560.271,191.375,560.271,172.808z"/>
	<path fill="#BE1E2D" d="M602.645,257.563l9.83-19.878c12.232,7.646,25.339,12.233,41.067,12.233
		c23.592,0,36.479-12.233,36.479-35.388v-8.956c-9.611,12.451-21.625,21.188-40.631,21.188c-27.086,0-52.426-20.096-52.426-53.955
		v-0.437c0-34.077,25.558-54.174,52.426-54.174c19.442,0,31.456,8.956,40.412,19.66V120.6h26.433v91.746
		c0,19.441-5.025,33.859-14.637,43.47c-10.485,10.485-26.649,15.509-47.402,15.509C635.192,271.325,617.499,266.519,602.645,257.563
		z M690.239,172.808v-0.437c0-19.004-15.509-31.893-33.858-31.893s-32.766,12.67-32.766,31.674v0.437
		c0,19.005,14.636,31.893,32.766,31.893C674.73,204.482,690.239,191.375,690.239,172.808z"/>
	<path fill="#BE1E2D" d="M803.39,235.938v-14.199c-7.864,9.393-19.878,16.602-37.354,16.602c-21.845,0-41.067-12.451-41.067-35.606
		v-0.437c0-25.558,19.879-37.791,46.747-37.791c13.98,0,22.936,1.966,31.893,4.806v-2.185c0-15.946-10.049-24.684-28.397-24.684
		c-12.888,0-22.5,2.839-32.985,7.208l-7.209-21.189c12.67-5.68,25.122-9.612,43.907-9.612c34.077,0,50.679,17.913,50.679,48.713
		v68.373H803.39z M804.045,187.662c-6.771-2.621-16.165-4.587-26.432-4.587c-16.602,0-26.432,6.772-26.432,17.913v0.437
		c0,10.922,9.83,17.038,22.281,17.038c17.476,0,30.582-9.83,30.582-24.247V187.662z"/>
</g>
<g>
	<path fill="#EF4136" d="M40.536,251.958h5.784l24.938,55.112h-6.645l-6.41-14.462H28.419L21.93,307.07h-6.332L40.536,251.958z
		 M55.779,287.058L43.35,259.15l-12.508,27.907H55.779z"/>
	<path fill="#EF4136" d="M90.414,252.349h6.176v54.721h-6.176V252.349z"/>
	<path fill="#EF4136" d="M120.434,252.349h23.529c6.723,0,12.117,2.033,15.557,5.473c2.658,2.658,4.222,6.488,4.222,10.788v0.156
		c0,9.068-6.254,14.384-14.853,15.947l16.807,22.357h-7.583l-15.869-21.264h-15.634v21.264h-6.175V252.349z M143.416,280.258
		c8.208,0,14.071-4.223,14.071-11.257v-0.156c0-6.723-5.159-10.788-13.993-10.788h-16.885v22.202H143.416z"/>
	<path fill="#EF4136" d="M184.773,252.349h6.176v49.015h30.8v5.706h-36.976V252.349z"/>
	<path fill="#EF4136" d="M241.529,252.349h6.175v54.721h-6.175V252.349z"/>
	<path fill="#EF4136" d="M271.548,252.349h5.785l34.474,43.855v-43.855h6.019v54.721h-4.925l-35.333-44.871v44.871h-6.02V252.349z"
		/>
	<path fill="#EF4136" d="M341.126,252.349h39.555v5.629h-33.379v18.683h29.862v5.628h-29.862v19.153h33.771v5.628h-39.946V252.349z"
		/>
	<path fill="#EF4136" d="M397.727,299.097l3.831-4.533c5.706,5.158,11.178,7.738,18.761,7.738c7.348,0,12.195-3.908,12.195-9.302
		v-0.157c0-5.081-2.736-7.974-14.228-10.396c-12.586-2.736-18.371-6.802-18.371-15.791v-0.156c0-8.599,7.583-14.932,17.98-14.932
		c7.973,0,13.68,2.268,19.23,6.724l-3.596,4.768c-5.081-4.143-10.163-5.941-15.791-5.941c-7.114,0-11.647,3.908-11.647,8.833v0.156
		c0,5.159,2.814,8.052,14.853,10.631c12.194,2.658,17.823,7.113,17.823,15.479v0.156c0,9.381-7.817,15.478-18.683,15.478
		C411.407,307.852,404.293,304.959,397.727,299.097z"/>
</g>
<g>
	<polygon fill="#EF4136" points="902.201,118.255 959.438,178.136 834.858,308.678 	"/>
	<polygon fill="#BE1E2D" points="789.166,0 959.438,178.136 903.612,236.633 	"/>
</g>
<g>
</g>
<g>
</g>
<g>
</g>
<g>
</g>
<g>
</g>
<g>
</g>
<g>
</g>
<g>
</g>
<g>
</g>
<g>
</g>
<g>
</g>
<g>
</g>
<g>
</g>
<g>
</g>
<g>
</g>
</svg>
